<svg width="512" height="512" viewBox="0 0 512 512" fill="none" xmlns="http://www.w3.org/2000/svg">
  <defs>
    <linearGradient id="bloodlink-bg" x1="48" y1="32" x2="448" y2="480" gradientUnits="userSpaceOnUse">
      <stop stop-color="#ED2B2F"/>
      <stop offset="1" stop-color="#C9102C"/>
    </linearGradient>
    <filter id="shadow" x="0" y="0" width="512" height="512" filterUnits="userSpaceOnUse" color-interpolation-filters="sRGB">
      <feDropShadow dx="0" dy="10" stdDeviation="14" flood-color="#9F1239" flood-opacity="0.18"/>
    </filter>
  </defs>

  <g filter="url(#shadow)">
    <rect x="20" y="20" width="472" height="472" rx="96" fill="url(#bloodlink-bg)"/>
  </g>

  <path
    d="M194 234C194 197 227 176 246 144C266 176 298 197 298 234C298 267 274 294 246 294C218 294 194 267 194 234Z"
    stroke="white"
    stroke-width="26"
    stroke-linecap="round"
    stroke-linejoin="round"
  />

  <path
    d="M270 108C286 154 318 183 347 214C379 248 394 282 394 319C394 385 345 433 284 433C245 433 212 419 189 393"
    stroke="white"
    stroke-width="26"
    stroke-linecap="round"
    stroke-linejoin="round"
  />
</svg>
